<svg xmlns="http://www.w3.org/2000/svg" viewBox="0 0 900 420" role="img" aria-labelledby="title desc">
<title id="title">Over the Glen Books logo</title>
<desc id="desc">An open book, Scottish glen hills, stars and a golden trampoline motif.</desc>
<defs>
  <linearGradient id="sky" x1="0" x2="0" y1="0" y2="1"><stop offset="0" stop-color="#dff4ff"/><stop offset="1" stop-color="#fff8e9"/></linearGradient>
  <linearGradient id="glen" x1="0" x2="1"><stop offset="0" stop-color="#79b98a"/><stop offset="1" stop-color="#5f9d79"/></linearGradient>
  <filter id="shadow" x="-20%" y="-20%" width="140%" height="140%"><feDropShadow dx="0" dy="8" stdDeviation="8" flood-color="#1b4452" flood-opacity="0.18"/></filter>
</defs>
<rect width="900" height="420" rx="48" fill="url(#sky)"/>
<path d="M66 245 C170 160 250 190 352 116 C455 44 548 120 640 86 C742 48 810 112 852 152 L852 420 L66 420 Z" fill="url(#glen)" opacity="0.95"/>
<path d="M110 290 C220 246 334 255 446 314 C558 255 682 244 790 290 L790 365 C678 320 560 327 446 386 C335 327 224 320 110 365 Z" fill="#fffdf7" filter="url(#shadow)"/>
<path d="M446 314 L446 386" stroke="#d9c08b" stroke-width="7" stroke-linecap="round"/>
<path d="M154 296 C248 266 338 279 421 326" fill="none" stroke="#d8c5a1" stroke-width="4" opacity="0.65"/>
<path d="M738 296 C644 266 554 279 471 326" fill="none" stroke="#d8c5a1" stroke-width="4" opacity="0.65"/>
<ellipse cx="448" cy="258" rx="112" ry="34" fill="none" stroke="#d7a532" stroke-width="15"/>
<ellipse cx="448" cy="258" rx="86" ry="23" fill="none" stroke="#f5d774" stroke-width="5" opacity="0.9"/>
<path d="M448 185 L463 228 L509 228 L472 254 L486 298 L448 271 L410 298 L424 254 L387 228 L433 228 Z" fill="#f7cb4d" stroke="#c28b20" stroke-width="5"/>
<text x="448" y="257" font-family="Arial, sans-serif" text-anchor="middle" font-size="44" font-weight="700" fill="#b33c81">M</text>
<text x="450" y="91" text-anchor="middle" font-family="Georgia, serif" font-size="54" font-weight="700" fill="#244f60">Over the Glen Books</text>
<text x="450" y="136" text-anchor="middle" font-family="Arial, sans-serif" font-size="24" fill="#496b70">Adventure • Imagination • Kindness</text>
<circle cx="204" cy="112" r="9" fill="#f7cb4d"/><circle cx="704" cy="112" r="7" fill="#f7cb4d"/><circle cx="760" cy="184" r="6" fill="#fff" opacity="0.85"/><circle cx="142" cy="178" r="6" fill="#fff" opacity="0.85"/>
</svg>
